<svg width="5984" height="900" viewBox="0 0 5984 900" fill="none" xmlns="http://www.w3.org/2000/svg">
<path fill-rule="evenodd" clip-rule="evenodd" d="M233.473 568.549C230.587 565.672 224.461 559.188 215.094 549.099C205.727 539.002 199.601 532.527 196.724 529.643C189.52 529.635 185.913 536.127 185.913 549.099C188.798 549.091 196.724 552.341 209.689 558.832C222.663 565.316 230.589 568.557 233.474 568.549H233.473ZM1727.26 510.187V503.697C1727.26 483.527 1718.62 473.438 1701.32 473.438C1692.68 473.43 1688.36 475.602 1688.36 479.929C1688.36 485.682 1693.4 492.173 1703.49 499.385C1713.58 506.573 1721.5 510.195 1727.26 510.187ZM2425.53 501.54H2419.04C2411.83 501.54 2401.03 506.233 2386.61 515.592C2372.2 524.952 2364.99 531.807 2364.99 536.127L2371.48 538.282C2377.25 539.732 2382.29 540.454 2386.61 540.454C2411.11 540.437 2424.08 531.087 2425.53 512.351V501.54ZM2429.85 265.912C2431.29 250.038 2431.29 239.964 2429.85 235.637C2424.08 238.506 2417.6 245.735 2410.4 257.265C2413.27 258.692 2419.76 261.584 2429.85 265.912ZM2477.41 272.396C2473.09 257.972 2463.72 248.611 2449.31 244.284C2444.98 255.815 2444.26 263.741 2447.14 268.069C2451.47 270.946 2461.56 272.396 2477.41 272.396ZM2950.84 562.067C2949.4 560.616 2944.72 555.583 2936.79 546.946C2928.86 538.283 2924.18 532.53 2922.73 529.645C2915.54 529.636 2911.93 536.128 2911.93 549.101C2913.37 549.093 2919.86 551.264 2931.38 555.584C2942.91 559.896 2949.4 562.075 2950.84 562.068L2950.84 562.067ZM298.326 693.944C292.556 717.007 278.87 734.291 257.249 745.823C216.902 764.551 161.415 797.703 90.7931 845.262C97.9969 826.526 109.537 810.675 125.387 797.703C170.062 766.001 227.711 731.416 298.326 693.944ZM244.283 283.197C244.283 294.728 239.234 308.432 229.146 324.282L224.827 324.266C227.712 308.431 224.105 300.498 214.016 300.498C202.486 300.481 196.002 320.676 194.56 361.023C194.56 385.521 194.56 410.747 194.56 436.685L190.233 436.669C190.233 423.711 184.471 407.869 172.949 389.125C161.418 370.38 149.164 361.021 136.19 361.021C136.19 376.881 126.823 384.806 108.087 384.806C89.3512 384.789 79.984 373.275 79.984 350.212C79.984 330.043 91.5147 319.954 114.578 319.954C149.164 319.937 172.948 339.403 185.913 378.315C185.913 352.376 185.913 327.149 185.913 302.653C188.798 270.943 199.601 255.094 218.335 255.094C235.636 255.085 244.283 264.469 244.283 283.197ZM1191.15 428.033C1186.82 446.784 1177.45 463.348 1163.04 477.757C1163.04 477.757 1160.16 477.757 1154.4 477.757C1150.07 476.307 1145.02 475.602 1139.26 475.602C1091.7 475.602 1039.82 490.739 983.615 520.998C927.4 551.264 887.052 566.402 862.555 566.402C836.607 566.394 813.552 554.871 793.374 531.808C706.91 598.103 595.939 631.247 460.455 631.247C376.867 631.247 315.619 622.6 276.706 605.316C273.83 605.307 269.138 611.791 262.655 624.765C256.171 637.73 250.767 644.221 246.44 644.221C240.678 644.204 229.147 639.181 211.853 629.092C190.232 618.995 177.266 613.963 172.948 613.963C158.532 647.082 136.911 671.604 108.086 687.455C69.1721 709.059 33.1435 719.885 0 719.885V711.231C85.0312 673.767 136.189 634.855 153.49 594.506C153.49 523.876 170.062 488.576 203.206 488.576C201.764 488.559 213.295 496.137 237.793 511.274C262.29 526.404 289.68 539.013 319.947 549.102C364.623 563.518 413.624 570.723 466.947 570.723C526.03 570.723 588.006 562.798 652.86 546.947C732.129 526.753 787.607 500.1 819.315 466.956C820.757 466.948 822.922 469.12 825.806 473.44C824.356 477.758 822.921 483.537 821.479 490.741C834.453 503.698 850.304 510.197 869.038 510.197C893.536 510.189 938.932 491.453 1005.23 453.982C960.552 438.123 930.285 430.206 914.434 430.206C908.672 430.189 905.074 432.369 903.624 436.69L843.099 434.518V430.191C843.099 389.843 866.875 369.673 914.434 369.673C928.85 369.664 951.184 376.163 981.451 389.129C1018.91 404.98 1041.26 413.627 1048.47 415.077C1078.73 423.715 1126.3 428.042 1191.15 428.034V428.033ZM843.099 667.989C843.099 682.396 838.058 699.706 827.961 719.885C813.553 719.885 797.703 715.558 780.402 706.911C776.083 709.788 769.591 720.606 760.945 739.341C724.917 729.244 706.911 717.008 706.911 702.591C706.911 698.255 711.951 686.011 722.032 665.841C737.891 665.832 754.47 670.159 771.756 678.806C776.083 671.594 784.73 660.07 797.704 644.219L843.1 667.987L843.099 667.989ZM568.549 408.577C575.753 418.657 579.359 430.205 579.359 443.179C579.359 474.88 567.828 490.738 544.773 490.738C520.268 490.73 508.014 477.756 508.014 451.824C508.014 433.065 513.784 412.911 525.315 391.291C535.404 373.99 546.214 356.704 557.737 339.403L562.064 339.395C546.213 394.151 538.279 422.271 538.279 423.721C538.279 438.122 543.32 445.334 553.417 445.334C566.382 445.325 570.709 435.253 566.382 415.075L568.546 408.577H568.549ZM546.928 95.1215C542.609 154.213 491.443 196.724 393.438 222.672L384.791 220.5C419.384 207.543 454.693 182.316 490.721 144.844C490.721 131.879 477.756 125.388 451.808 125.388C427.31 125.38 404.248 131.879 382.636 144.844C397.043 110.251 409.289 89.0022 419.386 81.0768C429.475 73.1348 446.767 69.1804 471.265 69.1804C502.975 69.1804 528.193 77.8274 546.928 95.1201V95.1215ZM1096.03 635.574C1093.14 642.778 1083.42 651.425 1066.85 661.514C1050.27 671.594 1034.05 676.651 1018.2 676.651C1000.91 676.643 992.262 669.447 992.262 655.03C992.262 643.483 999.465 630.532 1013.87 616.116L1033.33 598.807C1027.57 594.504 1021.09 592.332 1013.87 592.332C1005.23 592.332 996.59 593.062 987.943 594.504C995.138 575.752 1008.83 566.401 1029.01 566.401C1037.66 566.392 1047.75 570.007 1059.28 577.203C1056.39 582.973 1050.62 590.898 1041.98 600.987C1023.25 622.592 1013.87 635.574 1013.87 639.893C1013.87 649.981 1020.36 655.03 1033.33 655.03C1047.75 655.03 1068.64 648.547 1096.03 635.574ZM1067.92 103.767C1067.92 119.61 1059.28 140.882 1041.98 167.543C1024.68 194.211 1004.51 213.311 981.451 224.835C1007.39 190.233 1020.36 165.022 1020.36 149.173C742.216 206.814 505.86 294.009 311.3 410.748C318.504 381.915 325.708 365.353 332.913 361.024C407.855 310.58 523.866 257.979 680.961 203.214C830.846 152.77 959.83 119.626 1067.92 103.767ZM2014.79 404.248C2000.37 414.337 1982.36 425.876 1960.74 438.85C1927.59 431.638 1903.1 428.04 1887.24 428.04C1836.8 428.031 1795 436.687 1761.86 453.979C1761.86 531.798 1748.88 570.719 1722.94 570.719C1702.77 570.719 1678.99 561.352 1651.6 542.616C1645.84 561.344 1636.11 576.124 1622.42 586.934C1608.72 597.728 1592.52 603.141 1573.78 603.141C1573.78 676.64 1532.7 736.461 1450.56 782.571C1387.14 818.599 1302.84 847.432 1197.63 869.044C1102.51 889.205 1011.72 899.31 925.243 899.31C648.538 899.302 453.249 822.205 339.402 667.993L341.557 659.339C492.883 774.637 691.769 832.293 938.216 832.293C1095.3 832.285 1237.26 809.952 1364.09 765.277C1486.59 723.462 1547.83 678.803 1547.83 631.243C1547.83 618.26 1543.15 604.947 1533.78 591.251C1524.42 577.564 1519.74 568.553 1519.74 564.226C1519.74 557.014 1525.5 541.171 1537.02 516.667C1560.09 535.402 1575.22 544.77 1582.43 544.77C1609.81 544.761 1630.7 531.082 1645.12 503.701C1666.74 464.779 1677.55 445.331 1677.55 445.331C1710.69 416.506 1762.57 397.058 1833.19 386.961C1787.07 368.225 1756.09 358.858 1740.23 358.858C1735.92 358.858 1733.03 361.743 1731.59 367.512L1662.41 367.504V356.701C1662.41 313.461 1688.35 291.84 1740.23 291.84C1761.86 291.831 1791.4 302.65 1828.86 324.278C1886.52 354.53 1948.48 381.198 2014.78 404.244L2014.79 404.248ZM1310.04 451.816C1310.04 487.836 1299.23 520.996 1277.62 551.263C1255.99 581.521 1245.19 598.102 1245.19 600.987C1245.19 645.654 1233.67 687.452 1210.6 726.366C1183.21 771.033 1147.91 793.382 1104.67 793.382C1065.76 793.366 1029.01 787.621 994.417 776.09L998.744 769.599C1029.01 769.599 1057.83 766.001 1085.22 758.789C1112.6 751.577 1143.22 731.414 1177.09 698.264C1210.96 665.112 1227.89 637.017 1227.89 613.963C1227.89 600.98 1221.41 588.015 1208.43 575.041C1195.47 562.067 1188.98 555.584 1188.98 555.584C1188.98 548.364 1193.3 531.087 1201.96 503.705C1214.92 512.344 1229.34 516.671 1245.19 516.671C1265.37 516.654 1279.06 508.745 1286.26 492.894C1281.94 456.849 1271.13 400.66 1253.84 324.284C1237.99 257.972 1228.61 221.96 1225.74 216.181C1209.88 178.711 1201.96 155.656 1201.96 147.009C1201.96 135.485 1207.72 118.193 1219.25 95.1298C1232.22 109.53 1250.95 133.314 1275.45 166.465C1274.02 170.777 1271.13 177.996 1266.8 188.086C1262.48 198.167 1260.32 205.379 1260.32 209.707C1260.32 208.249 1268.61 243.573 1285.18 315.63C1301.76 387.695 1310.04 433.083 1310.04 451.819V451.816ZM1392.19 626.919L1351.11 667.987L1310.04 624.747L1348.96 583.678L1392.19 626.919ZM1169.53 265.911C1169.53 303.358 1158.72 322.109 1137.1 322.109C1125.57 322.092 1116.2 319.232 1108.99 313.47C1097.47 330.748 1088.09 339.402 1080.89 339.402C1060.72 339.393 1050.62 327.149 1050.62 302.652C1050.62 294.004 1052.07 285.367 1054.95 276.72L1063.6 272.393C1063.6 289.678 1070.81 298.333 1085.22 298.333C1098.19 298.325 1104.68 285.367 1104.68 259.419L1115.49 248.609C1115.49 267.336 1121.97 276.72 1134.94 276.72C1145.02 276.712 1151.51 263.738 1154.4 237.806L1165.2 229.152C1168.09 240.676 1169.53 252.937 1169.53 265.911ZM1809.41 648.547C1805.09 671.593 1791.41 688.902 1768.34 700.426C1729.43 720.604 1673.94 753.747 1601.89 799.873C1609.09 781.113 1620.62 765.279 1636.47 752.314C1681.16 720.604 1738.8 686.01 1809.41 648.547H1809.41ZM1426.78 488.558C1426.78 513.071 1421.74 541.904 1411.65 575.039L1320.85 162.145C1320.85 130.428 1326.62 108.094 1338.15 95.1284C1342.47 102.324 1358.32 167.186 1385.71 289.687C1413.09 412.181 1426.78 478.484 1426.78 488.558H1426.78ZM1610.53 408.575C1610.53 438.842 1607.65 464.077 1601.89 484.246L1597.57 484.238C1597.57 417.934 1583.87 371.112 1556.48 343.73V287.524C1592.52 324.987 1610.53 365.351 1610.53 408.575ZM1962.9 620.42C1960.03 627.623 1950.3 636.294 1933.72 646.383C1917.14 656.455 1900.93 661.512 1885.08 661.512C1866.35 661.504 1856.97 654.308 1856.97 639.891C1856.97 628.367 1864.91 615.393 1880.76 600.986L1900.21 583.676C1894.45 579.349 1887.96 577.201 1880.76 577.201C1870.67 577.193 1862.01 577.923 1854.82 579.365C1862.01 560.614 1875.72 551.262 1895.89 551.262C1904.53 551.262 1913.91 554.868 1923.99 562.072C1922.55 566.391 1916.79 574.324 1906.71 585.857C1889.4 607.461 1880.76 620.435 1880.76 624.762C1880.76 634.843 1886.53 639.891 1898.05 639.891C1913.91 639.874 1935.52 633.416 1962.9 620.418L1962.9 620.42ZM1498.12 136.19C1505.32 147.721 1508.92 159.982 1508.92 172.949C1508.92 203.216 1497.4 218.353 1474.34 218.353C1449.84 218.345 1437.59 205.379 1437.59 179.439C1437.59 160.695 1443 141.603 1453.8 122.155C1464.61 102.691 1475.79 84.3193 1487.31 67.0266H1491.64C1475.78 121.783 1467.85 149.894 1467.85 151.336C1467.85 165.744 1472.89 172.949 1482.99 172.949C1495.95 172.932 1500.28 162.86 1495.95 142.691L1498.12 136.192L1498.12 136.19ZM2239.62 717.712C2248.26 729.242 2252.58 741.503 2252.58 754.47C2252.58 786.163 2241.06 802.03 2217.99 802.03C2192.05 802.021 2179.08 788.342 2179.08 760.961C2179.08 742.201 2184.85 723.482 2196.37 704.754C2207.9 686.003 2218.71 667.284 2228.8 648.548L2233.12 650.703C2217.27 705.459 2209.35 733.571 2209.35 735.013C2209.35 749.42 2214.39 756.634 2224.47 756.634C2237.45 756.625 2241.77 745.823 2237.45 724.212L2239.61 717.713L2239.62 717.712ZM1945.61 79.984C1945.61 95.8431 1936.96 117.107 1919.67 143.767C1902.38 170.428 1882.92 190.249 1861.3 203.214C1885.8 167.177 1898.05 141.238 1898.05 125.387C1751.04 155.645 1599.72 215.467 1444.08 304.825C1451.28 277.427 1458.49 260.871 1465.69 255.094C1595.4 167.177 1755.37 108.816 1945.61 79.9826L1945.61 79.984ZM2142.33 451.817C2142.33 487.838 2131.89 520.998 2110.99 551.264C2090.09 581.523 2079.63 598.103 2079.63 600.989C2079.63 647.082 2068.11 690.338 2045.06 730.694C2019.11 778.238 1985.24 802.03 1943.45 802.03C1918.95 802.021 1880.76 793.383 1828.87 776.09L1831.04 769.599C1862.75 769.599 1893.01 765.281 1921.83 756.634C1946.33 750.857 1975.51 731.416 2009.39 698.264C2043.25 665.112 2060.19 637.017 2060.19 613.963C2060.19 600.98 2053.7 588.015 2040.73 575.041C2027.76 562.067 2021.27 555.584 2021.27 555.584C2021.27 548.364 2026.31 531.087 2036.4 503.705C2047.93 512.344 2061.63 516.671 2077.48 516.671C2099.09 516.654 2112.79 508.745 2118.55 492.894C2114.23 456.849 2103.42 400.66 2086.13 324.284C2071.71 257.972 2063.07 221.96 2060.19 216.181C2042.9 178.711 2034.25 155.656 2034.25 147.009C2034.25 135.485 2040.01 118.193 2051.53 95.1298C2064.52 109.53 2082.52 133.314 2105.58 166.465C2105.58 170.777 2103.78 177.996 2100.18 188.086C2096.58 198.167 2094.77 205.379 2094.77 209.707C2094.77 208.249 2102.7 243.573 2118.55 315.63C2134.4 387.695 2142.34 433.083 2142.34 451.819L2142.33 451.817ZM2518.48 670.161C2514.16 693.224 2500.47 710.516 2477.41 722.048C2438.49 740.768 2383.01 773.928 2310.95 821.487C2318.15 802.743 2329.69 786.9 2345.54 773.928C2390.22 742.202 2447.86 707.632 2518.48 670.161ZM2023.44 244.284C2023.44 283.198 2012.62 302.654 1991.01 302.654C1979.48 302.638 1970.84 299.048 1965.07 291.844C1952.09 309.136 1942.01 317.792 1934.8 317.792C1916.06 317.784 1906.7 306.261 1906.7 283.198C1906.7 273.118 1908.14 264.471 1911.02 257.267L1917.51 252.931C1917.51 268.791 1924.71 276.723 1939.13 276.723C1953.53 276.715 1960.74 264.471 1960.74 239.964L1971.55 226.999C1971.55 247.16 1977.32 257.265 1988.84 257.265C2000.37 257.257 2007.58 244.283 2010.46 218.352L2019.11 209.689C2022 219.778 2023.44 231.317 2023.44 244.283L2023.44 244.284ZM2259.07 488.559C2259.07 513.072 2254.74 541.905 2246.1 575.041L2153.14 162.147C2153.14 130.43 2159.63 108.095 2172.6 95.1298C2176.92 102.325 2192.42 167.187 2219.08 289.689C2245.73 412.182 2259.07 478.486 2259.07 488.559H2259.07ZM2719.53 516.654C2719.53 585.851 2697.91 620.436 2654.68 620.436C2621.53 620.42 2598.47 606.029 2585.5 577.204C2575.41 624.748 2548.75 648.548 2505.51 648.548C2482.45 648.548 2464.44 639.181 2451.47 620.436C2438.49 601.709 2432.01 580.809 2432.01 557.755C2407.51 599.537 2383.01 620.436 2358.51 620.436C2329.69 620.42 2315.28 602.43 2315.28 566.402C2315.28 540.439 2333.66 517.035 2370.4 496.136C2407.15 475.228 2425.53 463.348 2425.53 460.471C2428.41 447.489 2429.86 435.973 2429.86 425.878L2449.31 397.774C2453.63 409.305 2455.79 423.001 2455.79 438.852C2455.79 447.49 2454.71 460.107 2452.55 476.679C2450.39 493.243 2449.31 505.868 2449.31 514.516C2449.31 556.298 2470.2 577.205 2512 577.205C2552.36 577.197 2572.53 557.756 2572.53 518.844C2572.53 505.87 2569.29 485.328 2562.79 457.225C2556.32 429.113 2553.07 408.586 2553.07 395.621C2553.07 381.196 2559.56 361.027 2572.53 335.087C2582.62 376.886 2592.7 418.675 2602.79 460.474C2617.2 516.657 2638.1 544.775 2665.48 544.775C2682.78 544.767 2691.43 538.3 2691.43 525.319C2691.43 502.248 2682.78 468.399 2665.48 423.724C2648.19 379.041 2639.54 354.543 2639.54 350.216C2639.54 341.554 2642.43 330.047 2648.19 315.63C2653.95 301.214 2656.84 290.412 2656.84 283.2C2698.64 375.435 2719.53 453.262 2719.53 516.655L2719.53 516.654ZM2490.38 268.068C2484.62 295.434 2467.32 305.538 2438.49 298.334C2426.97 324.266 2403.54 345.529 2368.23 362.11C2332.93 378.666 2297.99 386.964 2263.39 386.964L2259.07 382.637C2270.6 382.637 2296.53 372.556 2336.89 352.386C2383.01 330.749 2411.83 312.03 2423.36 296.171C2406.07 288.967 2397.42 279.591 2397.42 268.068C2397.42 260.864 2399.22 252.574 2402.83 243.205C2406.44 233.845 2407.51 227.712 2406.07 224.835C2403.18 223.377 2401.75 220.508 2401.75 216.181C2401.75 207.543 2411.11 203.216 2429.85 203.216C2441.38 203.216 2455.07 210.784 2470.92 225.914C2486.77 241.052 2493.26 255.095 2490.38 268.069L2490.38 268.068ZM3009.21 678.798C3004.89 701.852 2991.2 718.44 2968.14 728.529C2929.22 748.699 2873.74 781.85 2801.68 827.976C2810.33 810.675 2821.85 794.824 2836.27 780.417C2880.95 748.7 2938.58 714.835 3009.21 678.798H3009.21ZM2343.38 114.578C2352.02 126.108 2356.35 138.362 2356.35 151.336C2356.35 183.029 2344.82 198.896 2321.76 198.896C2297.26 198.887 2285.01 185.2 2285.01 157.818C2285.01 139.082 2290.41 119.991 2301.22 100.534C2312.03 81.0615 2323.2 62.6982 2334.73 45.4056L2336.89 47.5691C2322.48 102.325 2315.27 130.437 2315.27 131.879C2315.27 146.286 2319.59 153.491 2328.24 153.491C2342.66 153.491 2347.7 142.689 2343.38 121.07V114.579L2343.38 114.578ZM2643.87 231.302C2643.87 270.224 2632.34 289.689 2609.28 289.689C2599.19 289.68 2590.54 286.082 2583.34 278.878C2570.36 296.155 2561 304.826 2555.23 304.826C2535.06 304.826 2524.97 293.295 2524.97 270.232C2524.97 260.135 2526.41 251.497 2529.29 244.284L2537.94 239.957C2537.94 255.817 2545.14 263.742 2559.56 263.742C2572.53 263.725 2579.02 251.498 2579.02 227L2589.82 214.018C2589.82 234.204 2596.31 244.284 2609.28 244.284C2619.37 244.284 2625.85 231.319 2628.73 205.379L2637.38 194.56C2641.7 206.091 2643.87 218.352 2643.87 231.302ZM2814.65 488.559C2814.65 513.072 2810.33 541.905 2801.68 575.041L2708.72 162.147C2708.72 130.43 2715.21 108.095 2728.17 95.1298C2732.5 102.325 2747.99 167.187 2774.65 289.689C2801.31 412.182 2814.64 478.486 2814.64 488.559H2814.65ZM2594.14 121.061C2594.14 152.771 2590.54 177.998 2583.34 196.724L2581.17 196.715C2581.17 130.428 2566.76 83.5977 2537.94 56.2147L2540.1 0C2576.13 37.4705 2594.14 77.8274 2594.14 121.06V121.061ZM2987.59 233.474C2987.59 243.563 2982.54 256.545 2972.46 272.396H2968.14C2971.02 257.972 2967.42 250.775 2957.33 250.775C2945.79 250.767 2940.03 270.231 2940.03 309.145C2938.58 335.076 2937.87 360.311 2937.87 384.807L2933.55 384.791C2933.55 373.267 2928.15 358.146 2917.34 339.403C2906.53 320.667 2893.92 311.3 2879.5 311.3C2879.5 325.716 2870.13 332.928 2851.4 332.928C2834.1 332.92 2825.46 322.109 2825.46 300.498C2825.46 280.32 2836.99 270.231 2860.05 270.231C2893.19 270.223 2916.26 288.975 2929.22 326.437C2929.22 301.933 2929.22 277.435 2929.22 252.938C2932.11 221.222 2942.91 205.379 2961.64 205.379C2978.95 205.371 2987.59 214.746 2987.59 233.474ZM5891.88 513.234C5873.18 524.068 5852.67 504.425 5841.15 492.893C5833.94 504.417 5827.46 515.956 5821.69 527.487C5807.28 546.206 5790.71 555.582 5771.96 555.582C5756.11 555.565 5740.98 550.55 5726.58 540.452C5704.95 563.515 5679.02 575.039 5648.75 575.039C5622.81 575.022 5593.25 562.795 5560.12 538.297C5411.67 585.85 5217.84 626.205 4978.61 659.349C4706.21 696.819 4430.95 715.555 4152.79 715.555C3670 715.538 3286.63 680.968 3002.73 611.788C2999.85 611.788 2995.16 617.201 2988.67 628.003C2982.19 638.805 2976.78 644.218 2972.46 644.218C2966.69 644.201 2954.09 639.178 2934.63 629.089C2915.17 618.992 2903.28 613.96 2898.96 613.96C2884.55 647.08 2862.21 671.601 2831.94 687.452C2794.48 709.056 2759.16 719.882 2726.02 719.882V711.228C2811.04 673.765 2862.21 634.852 2879.5 594.504C2879.5 523.873 2895.35 488.573 2927.06 488.573C2935.71 488.556 2949.04 496.854 2967.06 513.427C2985.06 529.999 3000.56 540.452 3013.53 544.771C3274.38 606.739 3669.99 637.736 4200.35 637.736C4749.45 637.728 5229.35 577.203 5640.1 456.143V469.1C5637.21 473.427 5630.73 481.361 5620.64 492.892C5632.17 504.415 5647.3 510.193 5666.04 510.193C5690.54 510.184 5724.41 488.572 5767.64 445.331C5769.08 450.371 5770.53 455.428 5771.96 460.468C5771.96 461.895 5768.36 469.829 5761.15 484.245C5768.36 491.44 5777.01 495.055 5787.1 495.055C5818.81 495.039 5823.63 469.116 5838.04 417.228C5842.79 414.846 5845.75 414.035 5851.51 413.193C5853.46 424.797 5854.92 439.221 5853.82 448.29C5886.94 445.348 5922.76 424.668 5945.07 402.74C5924.98 367.846 5881.39 326.322 5845.77 283.795C5811.15 242.417 5826.35 211.689 5838.69 165.385C5856.26 168.797 5948.69 308.803 5983.72 411.823C5974.75 436.029 5965.77 460.234 5956.79 484.431C5935.14 499.431 5913.51 509.041 5891.88 513.231L5891.88 513.234ZM5599.02 622.592C5590.38 667.282 5576.69 689.617 5557.95 689.617C5550.74 689.6 5541.37 686.74 5529.84 680.97C5511.11 696.82 5498.14 704.754 5490.93 704.754C5488.05 704.746 5483 702.227 5475.8 697.186C5468.6 692.146 5462.83 689.618 5458.51 689.618C5442.66 689.602 5407.34 705.469 5352.58 737.177C5292.05 771.756 5242.33 793.384 5203.43 802.031L5201.27 795.54C5238.72 785.443 5289.89 758.79 5354.74 715.558C5409.52 678.087 5449.15 659.351 5473.64 659.351C5477.96 659.343 5483.37 661.515 5489.85 665.842C5496.34 670.161 5501.75 672.326 5506.07 672.326C5507.51 672.317 5519.03 664.4 5540.66 648.549C5542.09 648.549 5545.34 649.991 5550.38 652.876C5555.42 655.736 5560.12 657.195 5564.44 657.195C5570.2 657.187 5574.16 652.511 5576.32 643.143C5578.49 633.768 5586.05 626.928 5599.02 622.593V622.592ZM5843.31 620.42C5838.98 643.483 5825.3 660.07 5802.24 670.159C5763.32 690.32 5707.83 723.48 5635.77 769.606C5642.99 752.297 5654.51 736.463 5670.37 722.047C5715.04 690.322 5772.68 656.473 5843.31 620.42ZM5962.2 585.85L5921.13 626.919L5877.89 583.678L5918.97 542.609L5962.2 585.85ZM5713.59 220.5C5709.27 279.583 5657.39 322.11 5557.95 348.059L5551.46 345.878C5586.05 332.921 5621.36 307.703 5657.39 270.231C5657.39 257.257 5643.71 250.775 5616.32 250.775C5593.25 250.767 5570.92 256.545 5549.3 268.068C5563.72 234.907 5575.97 214.389 5586.05 206.457C5596.15 198.515 5613.44 194.569 5637.94 194.569C5668.2 194.56 5693.42 203.216 5713.59 220.5H5713.59Z" fill="#AD6371"/>
</svg>
